<svg width="17" height="15" viewBox="0 0 17 15" fill="none" xmlns="http://www.w3.org/2000/svg">
<path d="M15.8333 2.25H12.9444V1.15625C12.9444 0.800781 12.6389 0.5 12.2778 0.5H4.72222C4.36111 0.5 4.05556 0.800781 4.05556 1.15625V2.25H1.16667C0.805556 2.25 0.5 2.55078 0.5 2.90625V4.4375C0.5 5.42188 1.13889 6.40625 2.22222 7.19922C3.08333 7.80078 4.16667 8.21094 5.27778 8.32031C6.13889 9.76953 7.16667 10.3438 7.16667 10.3438V12.3125H5.83333C4.86111 12.3125 4.05556 12.8867 4.05556 13.8438V14.1719C4.05556 14.3633 4.19444 14.5 4.38889 14.5H12.6111C12.8056 14.5 12.9444 14.3633 12.9444 14.1719V13.8438C12.9444 12.8867 12.1389 12.3125 11.1667 12.3125H9.83333V10.3438C9.83333 10.3438 10.8611 9.76953 11.7222 8.32031C12.8333 8.21094 13.9167 7.80078 14.7778 7.19922C15.8611 6.40625 16.5 5.42188 16.5 4.4375V2.90625C16.5 2.55078 16.1944 2.25 15.8333 2.25ZM3.25 5.77734C2.58333 5.28516 2.27778 4.76562 2.27778 4.4375V4H4.05556C4.08333 4.90234 4.22222 5.66797 4.41667 6.35156C4 6.21484 3.61111 6.02344 3.25 5.77734ZM14.7222 4.4375C14.7222 4.875 14.2222 5.42188 13.75 5.77734C13.3889 6.02344 13 6.21484 12.5833 6.35156C12.7778 5.66797 12.9167 4.90234 12.9444 4H14.7222V4.4375Z" fill="#93C738"/>
</svg>
