<svg width="24" height="22" viewBox="0 0 24 22" fill="none" xmlns="http://www.w3.org/2000/svg">
<path d="M23 3.125H18.6667V1.48438C18.6667 0.951172 18.2083 0.5 17.6667 0.5H6.33333C5.79167 0.5 5.33333 0.951172 5.33333 1.48438V3.125H1C0.458333 3.125 0 3.57617 0 4.10938V6.40625C0 7.88281 0.958333 9.35938 2.58333 10.5488C3.875 11.4512 5.5 12.0664 7.16667 12.2305C8.45833 14.4043 10 15.2656 10 15.2656V18.2188H8C6.54167 18.2188 5.33333 19.0801 5.33333 20.5156V21.0078C5.33333 21.2949 5.54167 21.5 5.83333 21.5H18.1667C18.4583 21.5 18.6667 21.2949 18.6667 21.0078V20.5156C18.6667 19.0801 17.4583 18.2188 16 18.2188H14V15.2656C14 15.2656 15.5417 14.4043 16.8333 12.2305C18.5 12.0664 20.125 11.4512 21.4167 10.5488C23.0417 9.35938 24 7.88281 24 6.40625V4.10938C24 3.57617 23.5417 3.125 23 3.125ZM4.125 8.41602C3.125 7.67773 2.66667 6.89844 2.66667 6.40625V5.75H5.33333C5.375 7.10352 5.58333 8.25195 5.875 9.27734C5.25 9.07227 4.66667 8.78516 4.125 8.41602ZM21.3333 6.40625C21.3333 7.0625 20.5833 7.88281 19.875 8.41602C19.3333 8.78516 18.75 9.07227 18.125 9.27734C18.4167 8.25195 18.625 7.10352 18.6667 5.75H21.3333V6.40625Z" fill="#93C738"/>
</svg>
